<?xml version="1.0" encoding="UTF-8" standalone="no"?>
<!-- Created with Inkscape (http://www.inkscape.org/) -->

<svg
   xmlns:dc="http://purl.org/dc/elements/1.1/"
   xmlns:cc="http://creativecommons.org/ns#"
   xmlns:rdf="http://www.w3.org/1999/02/22-rdf-syntax-ns#"
   xmlns:svg="http://www.w3.org/2000/svg"
   xmlns="http://www.w3.org/2000/svg"
   xmlns:sodipodi="http://sodipodi.sourceforge.net/DTD/sodipodi-0.dtd"
   xmlns:inkscape="http://www.inkscape.org/namespaces/inkscape"
   width="210mm"
   height="297mm"
   viewBox="0 0 744.09448819 1052.3622047"
   id="svg2"
   version="1.1"
   inkscape:version="0.91 r13725"
   sodipodi:docname="logo_2017.svg">
  <defs
     id="defs4">
    <filter
       color-interpolation-filters="sRGB"
       inkscape:menu-tooltip="Invert colors"
       inkscape:menu="Color"
       height="1"
       width="1"
       y="0"
       x="0"
       inkscape:label="Invert"
       id="filter3779">
      <feColorMatrix
         result="fbSourceGraphic"
         values="1"
         type="saturate"
         id="feColorMatrix3781" />
      <feColorMatrix
         values="-1 0 0 0 1 0 -1 0 0 1 0 0 -1 0 1 0 0 0 1 0 "
         in="fbSourceGraphic"
         id="feColorMatrix3783" />
    </filter>
  </defs>
  <sodipodi:namedview
     id="base"
     pagecolor="#2f2600"
     bordercolor="#666666"
     borderopacity="1.0"
     inkscape:pageopacity="0"
     inkscape:pageshadow="2"
     inkscape:zoom="0.19712928"
     inkscape:cx="696.57485"
     inkscape:cy="979.32096"
     inkscape:document-units="px"
     inkscape:current-layer="text4246"
     showgrid="false"
     inkscape:window-width="1368"
     inkscape:window-height="692"
     inkscape:window-x="0"
     inkscape:window-y="24"
     inkscape:window-maximized="1" />
  <metadata
     id="metadata7">
    <rdf:RDF>
      <cc:Work
         rdf:about="">
        <dc:format>image/svg+xml</dc:format>
        <dc:type
           rdf:resource="http://purl.org/dc/dcmitype/StillImage" />
        <dc:title />
      </cc:Work>
    </rdf:RDF>
  </metadata>
  <g
     inkscape:label="Capa 1"
     inkscape:groupmode="layer"
     id="layer1">
    <g
       id="layer1-3"
       inkscape:label="Capa 1"
       transform="translate(-1019.2857,-309.99996)"
       inkscape:export-xdpi="13.432838"
       inkscape:export-ydpi="13.432838"
       style="opacity:0.92"
       inkscape:export-filename="/home/squintero/Dropbox/Proyectos/freeCodeCamp/portafolio/img/logo.png">
      <path
         style="fill:#303036;fill-rule:evenodd;stroke:#000000;stroke-width:1px;stroke-linecap:butt;stroke-linejoin:miter;stroke-opacity:1;fill-opacity:1"
         d="m 184.40665,442.29137 55.59882,-61.8761 101.33333,60.08259 -20.62537,34.0767 -77.12094,11.65782 -43.04425,-19.72862 z"
         id="path4310"
         inkscape:connector-curvature="0" />
      <g
         id="g3805"
         transform="matrix(0.53832239,0,0,0.53832239,382.4517,-52.496457)"
         style="fill:none">
        <path
           style="fill:#30bced;fill-rule:evenodd;stroke:#ffffff;stroke-width:1.85762286px;stroke-linecap:butt;stroke-linejoin:miter;stroke-opacity:1;fill-opacity:1"
           d="m -269.60891,664.25677 0,158.25413 201.565812,114.94247 0,0 c 9.994997,-9.995 26.653326,-128.26914 26.653326,-128.26914 L -128.01308,680.9151 Z"
           id="path4306"
           inkscape:connector-curvature="0" />
        <path
           style="fill:#fc5130;fill-rule:evenodd;stroke:#ffffff;stroke-width:1.85762286px;stroke-linecap:butt;stroke-linejoin:miter;stroke-opacity:1;fill-opacity:1"
           d="m -271.27473,822.5109 -92.7825,101.61581 -10.49913,-178.24413 98.28415,-93.28664 4.9975,21.65583 z"
           id="path4308"
           inkscape:connector-curvature="0"
           sodipodi:nodetypes="cccccc" />
      </g>
      <circle
         id="path2985"
         style="color:#000000;display:inline;overflow:visible;visibility:visible;fill:none;fill-opacity:1;fill-rule:nonzero;stroke:#ffffff;stroke-width:8;stroke-linecap:butt;stroke-linejoin:miter;stroke-miterlimit:4;stroke-dasharray:none;stroke-dashoffset:0;stroke-opacity:1;marker:none;enable-background:accumulate"
         cx="267.14285"
         cy="396.64789"
         r="130" />
      <path
         style="color:#000000;display:inline;overflow:visible;visibility:visible;fill:#ffffff;fill-opacity:1;fill-rule:nonzero;stroke:#ffffff;stroke-width:8;stroke-linecap:butt;stroke-linejoin:miter;stroke-miterlimit:4;stroke-dasharray:none;stroke-dashoffset:0;stroke-opacity:1;marker:none;enable-background:accumulate"
         d="M -752.14258 -19.960938 A 106.60851 106.60851 0 0 0 -858.75195 86.648438 A 106.60851 106.60851 0 0 0 -752.14258 193.25586 A 106.60851 106.60851 0 0 0 -645.53516 86.648438 A 106.60851 106.60851 0 0 0 -752.14258 -19.960938 z M -752.14258 2.7578125 A 83.889503 83.889503 0 0 1 -668.25391 86.648438 A 83.889503 83.889503 0 0 1 -752.14258 170.53711 A 83.889503 83.889503 0 0 1 -836.0332 86.648438 A 83.889503 83.889503 0 0 1 -752.14258 2.7578125 z "
         id="path2987"
         transform="translate(1019.2857,309.99996)" />
    </g>
    <g
       style="font-style:normal;font-variant:normal;font-weight:bold;font-stretch:normal;font-size:209.23750305px;line-height:125%;font-family:'Ubuntu Mono';-inkscape-font-specification:'Ubuntu Mono, Bold';text-align:start;letter-spacing:0px;word-spacing:0px;writing-mode:lr-tb;text-anchor:start;fill:#ffffff;fill-opacity:1;stroke:none;stroke-width:1px;stroke-linecap:butt;stroke-linejoin:miter;stroke-opacity:1"
       id="text4246"
       inkscape:export-xdpi="18.134333"
       inkscape:export-ydpi="18.134333">
      <path
         d="m -551.18449,128.89146 q 6.48636,0 10.67111,-1.25542 4.39399,-1.46466 6.90484,-3.76628 2.51085,-2.51085 3.3478,-5.44017 1.04619,-3.13856 1.04619,-6.27713 0,-3.97551 -2.30161,-7.11407 -2.30162,-3.13856 -5.85865,-5.440176 -3.55704,-2.51085 -7.95103,-4.393988 -4.39399,-2.092375 -8.78797,-3.766275 -5.85865,-2.092375 -12.13578,-4.812463 -6.27712,-2.720087 -11.50806,-6.904837 -5.0217,-4.18475 -8.3695,-10.252638 -3.3478,-6.277125 -3.3478,-15.483575 0,-18.203663 11.7173,-28.4563 11.92654,-10.252638 32.64105,-10.252638 11.92654,0 20.71451,2.720087 8.99721,2.720088 15.0651,6.067888 l -7.53255,19.877563 q -5.23094,-2.929325 -11.7173,-5.0217 -6.27712,-2.092375 -14.64662,-2.092375 -20.50528,0 -20.50528,14.855862 0,3.766276 2.09238,6.695601 2.09237,2.720087 5.23093,5.0217 3.3478,2.092375 7.32332,3.766275 4.18475,1.6739 8.16026,3.138562 6.06789,2.301613 12.55425,5.230938 6.6956,2.720087 12.13577,7.53255 5.64942,4.603225 9.20645,11.7173 3.55704,6.904839 3.55704,17.575949 0,18.20366 -11.92654,28.24706 -11.7173,9.83417 -35.77961,9.83417 -16.11129,0 -25.73621,-3.3478 -9.62493,-3.55704 -14.43739,-6.48637 l 7.53255,-20.92375 q 5.64941,3.3478 13.3912,6.27713 7.95103,2.92932 19.24985,2.92932 z"
         id="path4251"
         inkscape:connector-curvature="0"
         inkscape:export-xdpi="13.432838"
         inkscape:export-ydpi="13.432838"
         style="opacity:0.92"
         inkscape:export-filename="/home/squintero/Dropbox/Proyectos/freeCodeCamp/portafolio/img/logo.png" />
      <path
         d="m -449.24241,129.30994 q 4.18475,0 8.16027,0 3.97551,-0.20924 6.90483,-0.62771 l 0,-22.59765 q -2.51085,-0.41848 -6.06788,-0.62772 -3.55704,-0.41847 -6.48637,-0.41847 -3.97551,0 -7.74178,0.62771 -3.76628,0.41848 -6.6956,1.6739 -2.72009,1.25543 -4.39399,3.55704 -1.6739,2.30161 -1.6739,6.06789 0,6.6956 5.0217,9.62492 5.0217,2.72009 12.97272,2.72009 z m -2.30161,-82.439577 q 12.13578,0 20.0868,2.929325 8.16027,2.720087 12.97273,7.951025 4.81246,5.0217 6.90484,12.55425 2.09237,7.323313 2.09237,16.529763 l 0,58.586504 q -5.64941,1.25542 -16.739,2.92932 -11.08959,1.6739 -24.89926,1.6739 -9.41569,0 -17.15748,-1.6739 -7.53255,-1.6739 -12.97272,-5.44017 -5.44018,-3.97552 -8.3695,-10.0434 -2.92933,-6.27713 -2.92933,-15.27434 0,-8.57874 3.3478,-14.43739 3.3478,-5.858649 8.99721,-9.415686 5.64942,-3.557038 12.97273,-5.021701 7.32331,-1.6739 15.27434,-1.6739 10.0434,0 17.78518,1.6739 l 0,-3.138562 q 0,-7.323313 -4.60322,-12.135775 -4.60323,-5.0217 -15.90205,-5.0217 -7.32331,0 -14.22815,1.046187 -6.6956,1.046188 -10.88035,2.51085 l -3.55704,-20.714513 q 4.81246,-1.6739 13.60044,-2.929325 8.78797,-1.464662 18.20366,-1.464662 z"
         id="path4253"
         inkscape:connector-curvature="0"
         inkscape:export-xdpi="13.432838"
         inkscape:export-ydpi="13.432838"
         style="opacity:0.92"
         inkscape:export-filename="/home/squintero/Dropbox/Proyectos/freeCodeCamp/portafolio/img/logo.png" />
      <path
         d="m -319.2625,144.37504 q -7.11408,1.88314 -17.36671,3.76627 -10.0434,1.88314 -21.96994,1.88314 -12.13578,0 -19.87756,-3.3478 -7.74179,-3.3478 -12.34502,-9.41569 -4.39398,-6.27712 -6.06788,-14.64662 -1.6739,-8.3695 -1.6739,-18.4129 l 0,-54.820227 25.73621,0 0,51.472427 q 0,13.60044 3.13856,20.29604 3.3478,6.48636 12.76349,6.48636 5.85865,0 11.7173,-1.04619 l 0,-77.208637 25.94545,0 0,94.993827 z M -335.79226,22.80805 -372.19959,40.384 -381.61528,26.365088 -348.55575,3.1397247 -335.79226,22.80805 Z"
         id="path4255"
         inkscape:connector-curvature="0"
         inkscape:export-xdpi="13.432838"
         inkscape:export-ydpi="13.432838"
         style="opacity:0.92"
         inkscape:export-filename="/home/squintero/Dropbox/Proyectos/freeCodeCamp/portafolio/img/logo.png" />
      <path
         d="m -218.15738,143.53809 q -0.62772,0.41847 -2.92933,1.46466 -2.09237,1.04619 -5.64941,2.30161 -3.55704,1.04619 -8.78798,1.88314 -5.0217,0.83695 -11.50806,0.83695 -17.78519,0 -25.94545,-10.46187 -8.16026,-10.67112 -8.16026,-30.96715 l 0,-83.485767 -27.20088,0 0,-21.3422257 52.93709,0 0,106.7111227 q 0,10.0434 3.97551,13.60044 3.97552,3.55704 10.0434,3.55704 7.74179,0 12.97273,-2.09238 5.23094,-2.09237 6.90484,-2.72008 l 3.3478,20.71451 z"
         id="path4257"
         inkscape:connector-curvature="0"
         inkscape:export-xdpi="13.432838"
         inkscape:export-ydpi="13.432838"
         style="opacity:0.92"
         inkscape:export-filename="/home/squintero/Dropbox/Proyectos/freeCodeCamp/portafolio/img/logo.png" />
      <path
         d="m -150.98444,83.486926 q 0,-33.478001 12.34501,-50.426238 12.34502,-17.157476 34.31496,-17.157476 22.806884,0 34.733425,17.157476 11.926538,16.948237 11.926538,50.426238 0,29.293254 -9.415688,46.241484 -9.415687,16.739 -27.200871,20.29604 2.30161,5.23094 11.08958,8.57874 8.997216,3.55704 24.480791,6.27712 l -5.440175,18.4129 q -24.480786,-3.3478 -37.03504,-11.29882 -12.34501,-7.74179 -14.64663,-22.38841 -16.94824,-4.18475 -26.15468,-20.71452 -8.99722,-16.739 -8.99722,-45.404534 z m 26.15469,0 q 0,9.415688 0.62771,17.575954 0.83695,8.16026 2.92933,14.43738 2.30161,6.06789 6.27712,9.62493 3.97552,3.55704 10.67112,3.55704 6.486364,0 10.461874,-3.55704 4.18475,-3.55704 6.27713,-9.62493 2.30161,-6.27712 2.92932,-14.43738 0.83695,-8.160266 0.83695,-17.575954 0,-9.415688 -0.83695,-17.57595 -0.62771,-8.3695 -2.92932,-14.437388 -2.09238,-6.067888 -6.06789,-9.624925 -3.97551,-3.557038 -10.671114,-3.557038 -6.6956,0 -10.67112,3.557038 -3.97551,3.557037 -6.27712,9.834162 -2.09238,6.067888 -2.92933,14.228151 -0.62771,8.160262 -0.62771,17.57595 z"
         id="path4259"
         inkscape:connector-curvature="0"
         inkscape:export-xdpi="13.432838"
         inkscape:export-ydpi="13.432838"
         style="opacity:0.92"
         inkscape:export-filename="/home/squintero/Dropbox/Proyectos/freeCodeCamp/portafolio/img/logo.png" />
      <path
         d="m 30.408111,144.37504 q -7.11407,1.88314 -17.36671,3.76627 -10.0434025,1.88314 -21.9699405,1.88314 -12.1357745,0 -19.8775625,-3.3478 -7.741787,-3.3478 -12.345012,-9.41569 -4.393988,-6.27712 -6.067888,-14.64662 -1.6739,-8.3695 -1.6739,-18.4129 l 0,-54.820227 25.736213,0 0,51.472427 q 0,13.60044 3.138562,20.29604 3.3478,6.48636 12.7634875,6.48636 5.85865,0 11.7173001,-1.04619 l 0,-77.208637 25.9454504,0 0,94.993827 z"
         id="path4261"
         inkscape:connector-curvature="0"
         inkscape:export-xdpi="13.432838"
         inkscape:export-ydpi="13.432838"
         style="opacity:0.92"
         inkscape:export-filename="/home/squintero/Dropbox/Proyectos/freeCodeCamp/portafolio/img/logo.png" />
      <path
         d="m 91.070618,21.13415 c 0,5.0217 -1.604153,8.997213 -4.81246,11.926538 -3.208313,2.929325 -7.044337,4.393987 -11.50807,4.393987 -4.463733,0 -8.299753,-1.464662 -11.50806,-4.393987 -3.068813,-2.929325 -4.60322,-6.904838 -4.60322,-11.926538 0,-5.161192 1.534407,-9.20645 4.60322,-12.1357752 3.208307,-2.929325 7.044327,-4.3939875 11.50806,-4.3939875 4.463733,0 8.299757,1.4646625 11.50807,4.3939875 3.208307,2.9293252 4.81246,6.9745832 4.81246,12.1357752 z m 28.963032,126.40394 c -7.37114,3.33568 -9.92754,2.44559 -18.50116,2.48636 -6.695601,0 -12.345012,-0.97644 -16.948232,-2.92932 -4.463733,-1.95289 -8.090517,-4.74272 -10.88035,-8.3695 -2.650347,-3.76628 -4.533487,-8.29976 -5.64942,-13.60044 -1.115933,-5.30069 -1.6739,-11.36857 -1.6739,-18.20366 l 0,-36.198092 -27.20087,0 0,-21.342225 52.93709,0 0,60.888117 c 0,5.85865 1.046187,10.25263 3.13856,13.18196 2.231865,2.78983 5.858652,4.18475 10.880352,4.18475 6.2274,0.25772 11.99293,-1.92724 13.87756,-2.81246 z"
         id="path4263"
         inkscape:connector-curvature="0"
         inkscape:export-xdpi="13.432838"
         inkscape:export-ydpi="13.432838"
         sodipodi:nodetypes="ssscscsssccccssccccscccc"
         style="opacity:0.92"
         inkscape:export-filename="/home/squintero/Dropbox/Proyectos/freeCodeCamp/portafolio/img/logo.png" />
      <path
         d="m 130.13268,52.519775 q 6.90484,-1.883137 16.94824,-3.557037 10.25264,-1.6739 22.17918,-1.6739 11.7173,0 19.45909,3.3478 7.74178,3.138562 12.13577,9.20645 4.60323,5.85865 6.48636,14.22815 1.88314,8.160263 1.88314,18.203663 l 0,55.447939 -25.73621,0 0,-52.100139 q 0,-13.809675 -3.13856,-19.877563 -3.13857,-6.067887 -12.76349,-6.067887 -2.92933,0 -5.85865,0.209237 -2.72009,0.209238 -5.85865,0.627713 l 0,77.208639 -25.73622,0 0,-95.203065 z"
         id="path4265"
         inkscape:connector-curvature="0"
         inkscape:export-xdpi="13.432838"
         inkscape:export-ydpi="13.432838"
         style="opacity:0.92"
         inkscape:export-filename="/home/squintero/Dropbox/Proyectos/freeCodeCamp/portafolio/img/logo.png" />
      <path
         d="m 240.38447,70.723438 -22.38841,0 0,-21.342225 22.38841,0 0,-24.690025 25.73621,-4.18475 0,28.874775 41.21979,0 0,21.342225 -41.21979,0 0,39.755122 q 0,5.44018 1.04619,8.78798 1.04619,3.3478 2.92932,5.23094 1.88314,1.88313 4.60323,2.51085 2.72009,0.62771 6.06789,0.62771 3.55704,0 6.48636,-0.20924 3.13856,-0.20924 5.85865,-0.62771 2.92933,-0.62771 5.85865,-1.6739 3.13856,-1.04619 6.6956,-2.72009 l 3.55704,22.17918 q -7.11408,2.92932 -15.48358,4.18475 -8.16026,1.25542 -15.90205,1.25542 -8.99721,0 -15.90205,-1.46466 -6.90484,-1.46466 -11.7173,-5.64941 -4.81246,-4.18475 -7.32331,-11.7173 -2.51085,-7.74179 -2.51085,-20.0868 l 0,-40.382842 z"
         id="path4267"
         inkscape:connector-curvature="0"
         inkscape:export-xdpi="13.432838"
         inkscape:export-ydpi="13.432838"
         style="opacity:0.92"
         inkscape:export-filename="/home/squintero/Dropbox/Proyectos/freeCodeCamp/portafolio/img/logo.png" />
      <path
         d="m 317.99521,99.388976 q 0,-12.972725 3.97552,-22.806888 3.97551,-9.834162 10.46187,-16.320525 6.48636,-6.6956 14.85586,-10.0434 8.3695,-3.3478 17.15748,-3.3478 21.7607,0 33.05952,12.972725 11.29883,12.763488 11.29883,37.453513 0,2.51085 -0.20924,5.230939 0,2.72009 -0.20924,4.39399 l -63.81743,0 q 0,9.62492 7.95102,15.27433 7.95103,5.44018 20.50528,5.44018 7.74178,0 14.64662,-1.6739 7.11408,-1.6739 11.92654,-3.3478 l 3.55704,21.96994 q -6.6956,2.30161 -14.22815,3.76627 -7.53255,1.6739 -16.94824,1.6739 -12.55425,0 -22.59765,-3.13856 -9.83416,-3.3478 -16.94824,-9.62493 -6.90484,-6.48636 -10.67111,-15.90205 -3.76628,-9.41568 -3.76628,-21.969934 z m 65.90982,-10.252637 q 0,-3.975513 -1.04619,-7.532551 -1.04619,-3.766275 -3.3478,-6.6956 -2.30161,-2.929325 -5.85865,-4.603225 -3.55704,-1.883137 -8.78798,-1.883137 -5.0217,0 -8.78797,1.6739 -3.55704,1.6739 -6.06789,4.603225 -2.30161,2.929325 -3.76627,6.6956 -1.25543,3.766275 -1.6739,7.741788 l 39.33665,0 z"
         id="path4269"
         inkscape:connector-curvature="0"
         inkscape:export-xdpi="13.432838"
         inkscape:export-ydpi="13.432838"
         style="opacity:0.92"
         inkscape:export-filename="/home/squintero/Dropbox/Proyectos/freeCodeCamp/portafolio/img/logo.png" />
      <path
         d="m 490.39055,75.535901 q -2.51085,-0.627713 -6.06788,-1.255425 -3.3478,-0.627713 -6.90484,-1.046188 -3.55704,-0.627712 -6.90484,-0.83695 -3.3478,-0.209237 -5.64941,-0.209237 -5.44018,0 -10.67111,0.627712 -5.23094,0.418475 -10.67112,1.883138 l 0,73.023889 -25.94545,0 0,-91.855264 q 10.25264,-3.766276 20.92375,-6.067888 10.88035,-2.301613 25.31774,-2.301613 2.09238,0 5.85865,0.209238 3.97551,0.209237 8.3695,0.83695 4.39399,0.418475 8.78798,1.255425 4.60322,0.627712 8.16026,1.883137 l -4.60323,23.853076 z"
         id="path4271"
         inkscape:connector-curvature="0"
         inkscape:export-xdpi="13.432838"
         inkscape:export-ydpi="13.432838"
         style="opacity:0.92"
         inkscape:export-filename="/home/squintero/Dropbox/Proyectos/freeCodeCamp/portafolio/img/logo.png" />
      <path
         d="m 596.45759,98.342789 q 0,11.717301 -3.3478,21.342221 -3.3478,9.41569 -9.41569,16.32053 -6.06789,6.90484 -14.64662,10.67111 -8.3695,3.76628 -18.83138,3.76628 -10.46187,0 -19.04061,-3.76628 -8.3695,-3.76627 -14.64663,-10.67111 -6.06788,-6.90484 -9.41568,-16.32053 -3.3478,-9.62492 -3.3478,-21.342221 0,-11.508063 3.3478,-20.923751 3.55703,-9.624925 9.62492,-16.320525 6.27713,-6.904838 14.85586,-10.461875 8.57874,-3.766275 18.62214,-3.766275 10.25264,0 18.62214,3.766275 8.57874,3.557037 14.64662,10.461875 6.27713,6.6956 9.62493,16.320525 3.3478,9.415688 3.3478,20.923751 z m -66.53753,0.209237 q 0,13.181964 4.60323,21.342224 4.81246,8.16026 15.27434,8.16026 10.0434,0 15.0651,-8.16026 5.23093,-8.16026 5.23093,-21.342224 0,-13.181963 -4.81246,-21.132988 -4.60322,-8.160262 -15.0651,-8.160262 -10.0434,0 -15.27434,8.160262 -5.0217,7.951025 -5.0217,21.132988 z"
         id="path4273"
         inkscape:connector-curvature="0"
         inkscape:export-xdpi="13.432838"
         inkscape:export-ydpi="13.432838"
         style="opacity:0.92"
         inkscape:export-filename="/home/squintero/Dropbox/Proyectos/freeCodeCamp/portafolio/img/logo.png" />
    </g>
  </g>
</svg>
